<svg xmlns="http://www.w3.org/2000/svg" shape-rendering="geometricPrecision" text-rendering="geometricPrecision" image-rendering="optimizeQuality" fill-rule="evenodd" clip-rule="evenodd" viewBox="0 0 421 511.605"><path fill="#E44B4D" d="M95.705.014h199.094L421 136.548v317.555c0 31.54-25.961 57.502-57.502 57.502H95.705c-31.55 0-57.502-25.873-57.502-57.502V57.515C38.203 25.886 64.076.014 95.705.014z"/><path fill="#CD4445" d="M341.028 133.408h-.019L421 188.771v-52.066h-54.357c-9.458-.15-17.998-1.274-25.615-3.297z"/><path fill="#FBCFD0" d="M294.8 0L421 136.533v.172h-54.357c-45.068-.718-69.33-23.397-71.843-61.384V0z"/><path fill="#CD4445" fill-rule="nonzero" d="M0 431.901V253.404l.028-1.261c.668-16.446 14.333-29.706 30.936-29.706h7.238v50.589h350.341c12.862 0 23.373 10.51 23.373 23.371v135.504c0 12.83-10.543 23.373-23.373 23.373H23.373C10.541 455.274 0 444.75 0 431.901z"/><path fill="#963232" fill-rule="nonzero" d="M143.448 240.364a8.496 8.496 0 01-8.496-8.497 8.496 8.496 0 018.496-8.497h163.176a8.496 8.496 0 018.496 8.497 8.496 8.496 0 01-8.496 8.497H143.448zm0-59.176a8.496 8.496 0 010-16.993h172.304a8.496 8.496 0 110 16.993H143.448z"/><path fill="#fff" fill-rule="nonzero" d="M11.329 276.171v154.728c0 7.793 6.38 14.178 14.179 14.178h362.033c7.8 0 14.179-6.379 14.179-14.178V297.405c0-7.798-6.407-14.178-14.179-14.178H37.892c-12.618-.096-19.586-1.638-26.563-7.056z"/><path fill="#1A1A1A" fill-rule="nonzero" d="M86.405 401.572H58.758l21.226-81.894h40.489l21.226 81.894h-27.648l-3.012-12.971h-21.62l-3.014 12.971zm13.103-56.735l-5.373 22.93h12.055l-5.241-22.93h-1.441zm46.186 56.735l-2.62-20.964h10.875c2.708 0 4.433-.371 5.176-1.114.743-.743 1.114-1.682 1.114-2.817v-36.034h-10.876v-20.965h37.081v60.274c0 7.076-1.747 12.449-5.241 16.116-3.493 3.67-8.516 5.504-15.069 5.504h-20.44zm74.358 0h-27.646l21.226-81.894h40.489l21.226 81.894h-27.649l-3.012-12.971h-21.62l-3.014 12.971zm13.104-56.735l-5.373 22.93h12.054l-5.24-22.93h-1.441zm73.309-25.159l9.041 21.884h1.31l9.041-21.884h28.434l-18.214 39.571 18.214 42.323h-29.089l-9.827-23.585h-1.179l-9.696 23.585h-27.779l17.82-41.535-17.82-40.359h29.744z"/></svg>