<svg xmlns="http://www.w3.org/2000/svg" fill="none" viewBox="0 0 24 24" id="Datadog--Streamline-Svg-Logos" height="24" width="24">
  <desc>
    Datadog Streamline Icon: https://streamlinehq.com
  </desc>
  <path fill="#632ca6" d="M1.7736825 23.72455H0.25V20.2169h1.5236825c1.0977425 0 1.6473425 0.552825 1.6473425 1.6582 0 1.2323 -0.5496 1.84945 -1.6473425 1.84945Zm-0.872145 -0.564575H1.675275c0.72938 0 1.093625 -0.4283 1.093625 -1.28545 0 -0.729675 -0.364245 -1.094525 -1.093625 -1.094525H0.9015375v2.379975Zm3.2021625 0.564575h-0.66885l1.49195 -3.50765h0.7003l1.52455 3.50765h-0.700875l-0.4424 -0.956725h-1.125925l0.223825 -0.563725h0.730275l-0.575475 -1.31775 -1.157375 2.8382Zm2.6796 -3.50765h2.66725v0.564h-1.00785v2.94365h-0.65125V20.7809H6.783l0.0003 -0.564Zm3.002125 3.50765h-0.668875l1.49225 -3.50765h0.7003l1.524275 3.50765h-0.7009l-0.442375 -0.956725h-1.12595l0.22325 -0.563725h0.73025l-0.57545 -1.31775 -1.156775 2.8382Zm5.003725 0h-1.523675V20.2169h1.523675c1.09835 0 1.64735 0.552825 1.64735 1.6582 0 1.2323 -0.549 1.84945 -1.64735 1.84945Zm-0.872425 -0.564575h0.774325c0.7288 0 1.093925 -0.4283 1.093925 -1.28545 0 -0.729675 -0.365125 -1.094525 -1.093925 -1.094525h-0.774325v2.379975Zm2.9607 -1.1844c0 -1.1894 0.588975 -1.78395 1.76545 -1.78395 1.15855 0 1.737525 0.59455 1.737525 1.78395 0 1.18235 -0.578975 1.77425 -1.737525 1.77425 -1.124475 -0.0003 -1.712275 -0.5919 -1.76545 -1.77425Zm1.76545 1.208775c0.707625 0 1.0616 -0.407725 1.0616 -1.22375 0 -0.803425 -0.353975 -1.20555 -1.0616 -1.20555 -0.72615 0 -1.08895 0.402125 -1.08895 1.20555 0.0003 0.816025 0.363075 1.22375 1.08895 1.22375Zm4.4556 -0.8792v0.82105c-0.1504 0.03935 -0.28525 0.05845 -0.40305 0.05845 -0.796925 0 -1.194675 -0.42095 -1.194675 -1.263125 0 -0.77755 0.422425 -1.1662 1.265775 -1.1662 0.3525 0 0.680025 0.065525 0.983175 0.196525v-0.588975c-0.30285 -0.11425 -0.646825 -0.171825 -1.032225 -0.171825 -1.261675 0 -1.892925 0.576325 -1.892925 1.730175 0 1.2179 0.6204 1.828 1.8609 1.828 0.426825 0 0.781375 -0.062275 1.06455 -0.186825v-1.83505h-1.051925l-0.220025 0.577225h0.620425v0.000575Z" stroke-width="0.25"></path>
  <path fill="#632ca6" d="m17.878575 13.482675 -1.5504 -1.022825 -1.293375 2.160525 -1.5043 -0.43975 -1.324525 2.0216 0.06785 0.63625 7.201875 -1.32715 -0.4183 -4.499975 -1.178825 2.471325Zm-6.716 -1.939925 1.155625 -0.158925c0.186825 0.084025 0.31695 0.11605 0.541075 0.173025 0.349275 0.090775 0.753175 0.178025 1.35155 -0.123375 0.139225 -0.069025 0.42945 -0.334275 0.546675 -0.485575l4.734075 -0.858625 0.482925 5.84505 -8.11075 1.4617 -0.701175 -5.853275Zm8.7937 -2.106175 -0.46735 0.089 -0.8977 -9.2754525 -15.297025 1.7736625L5.1789 17.317l1.7907 -0.259975c-0.143075 -0.20415 -0.365725 -0.4512 -0.74585 -0.767275 -0.527275 -0.437975 -0.341025 -1.18235 -0.02965 -1.65235 0.411525 -0.794 2.532125 -1.803025 2.411975 -3.072025 -0.043175 -0.461475 -0.116325 -1.0619 -0.5449 -1.47375 -0.016175 0.170975 0.012925 0.335175 0.012925 0.335175s-0.175975 -0.224425 -0.2635 -0.530225c-0.08695 -0.1175 -0.1554 -0.1548 -0.247925 -0.311675 -0.0661 0.18125 -0.057275 0.391575 -0.057275 0.391575s-0.14395 -0.339875 -0.16715 -0.62685c-0.0852 0.12835 -0.106625 0.372175 -0.106625 0.372175s-0.186825 -0.5358 -0.14425 -0.82455c-0.085175 -0.251175 -0.3381 -0.74965 -0.266725 -1.88235 0.466775 0.326925 1.4946 0.249375 1.895 -0.34075 0.132775 -0.19565 0.224125 -0.7291 -0.0664 -1.780725 -0.186525 -0.67415 -0.6483 -1.6782 -0.828375 -2.059175l-0.02145 0.01555c0.0949 0.306975 0.290525 0.95 0.365725 1.26225 0.227375 0.945875 0.288175 1.275475 0.18155 1.711675 -0.090775 0.37925 -0.30845 0.627175 -0.8601 0.904475 -0.551675 0.278175 -1.284 -0.398925 -1.3301 -0.436225 -0.5361 -0.427125 -0.950875 -1.1236 -0.997 -1.4623 -0.048175 -0.3704 0.21355 -0.592775 0.34545 -0.895625 -0.188875 0.05375 -0.3992 0.1498 -0.3992 0.1498s0.25115 -0.259975 0.560775 -0.484675c0.12835 -0.0849 0.20355 -0.13895 0.338675 -0.251175 -0.195625 -0.003225 -0.35455 0.00235 -0.35455 0.00235s0.32635 -0.17625 0.664475 -0.3046c-0.24735 -0.010875 -0.4844 -0.001775 -0.4844 -0.001775s0.7282 -0.325775 1.303075 -0.564585c0.395375 -0.16215 0.781675 -0.1142675 0.99875 0.19976 0.284925 0.41125 0.584275 0.6345 1.218475 0.77285 0.3895 -0.172725 0.5076 -0.26115 0.996975 -0.3948 0.43065 -0.473825 0.76875 -0.534925 0.76875 -0.534925s-0.167725 0.153925 -0.212675 0.395675c0.2441 -0.1924 0.511725 -0.353075 0.511725 -0.353075s-0.1037 0.127775 -0.20035 0.33105l0.022325 0.0335c0.28495 -0.170975 0.619825 -0.3055 0.619825 -0.3055s-0.095775 0.121025 -0.207975 0.277575c0.215025 -0.00175 0.65065 0.009125 0.81985 0.0282 0.99845 0.02205 1.20555 -1.06601 1.5886 -1.2026025 0.4797 -0.1712575 0.694125 -0.27495 1.511625 0.5281625 0.7012 0.689715 1.249325 1.923465 0.977025 2.19989 -0.22825 0.229425 -0.678275 -0.0896 -1.17705 -0.711175 -0.2635 -0.329275 -0.46295 -0.7185 -0.556375 -1.213175 -0.078725 -0.4174225 -0.3854 -0.6594725 -0.3854 -0.6594725s0.177725 0.3965625 0.177725 0.7458225c0 0.19095 0.0238 0.904475 0.329875 1.30515 -0.03025 0.05845 -0.04435 0.289625 -0.07785 0.333975 -0.356025 -0.430325 -1.12065 -0.738175 -1.2455 -0.82895 0.422125 0.34575 1.3921 1.14005 1.764575 1.901725 0.3525 0.72 0.1448 1.38005 0.323125 1.550725 0.0508 0.04875 0.757875 0.93 0.893875 1.372675 0.23735 0.7714 0.0141 1.58245 -0.2964 2.08535l-0.86745 0.135125c-0.1269 -0.03525 -0.212375 -0.052875 -0.32605 -0.118675 0.06285 -0.11105 0.1874 -0.38775 0.188575 -0.44505l-0.04905 -0.085775c-0.26995 0.382475 -0.722025 0.753775 -1.09775 0.967025 -0.491725 0.278775 -1.058375 0.2356 -1.427325 0.121625 -1.046925 -0.322825 -2.03715 -1.030475 -2.275975 -1.216425 0 0 -0.00735 0.14835 0.0376 0.181825 0.2638 0.297875 0.868625 0.836325 1.453475 1.212025l-1.246375 0.137175 0.58925 4.5875c-0.261125 0.0373 -0.301975 0.0558 -0.587775 0.09635 -0.25205 -0.89035 -0.7341 -1.4717 -1.261075 -1.810375 -0.464725 -0.29875 -1.105675 -0.366025 -1.719025 -0.2444l-0.039375 0.045825c0.426525 -0.044375 0.930025 0.017325 1.447325 0.34485 0.5076 0.321075 0.916775 1.150325 1.067475 1.6494 0.193 0.638025 0.32635 1.3207 -0.193 2.044225 -0.369225 0.51435 -1.4473 0.7984 -2.31855 0.183575 0.23265 0.37425 0.54695 0.68005 0.97055 0.737625 0.628625 0.085475 1.225225 -0.0238 1.635875 -0.445325 0.35045 -0.360425 0.5367 -1.1142 0.487625 -1.907925l0.5549 -0.080475 0.20035 1.424675 9.184075 -1.10595 -0.74935 -7.309675Zm-5.5877 -3.869c-0.025575 0.058475 -0.0661 0.09695 -0.0056 0.2873l0.003525 0.010875 0.0097 0.024675 0.025275 0.056975c0.108975 0.22295 0.228525 0.433 0.428875 0.5405 0.0517 -0.0088 0.10545 -0.014675 0.160975 -0.017325 0.188 -0.008225 0.306675 0.02145 0.381575 0.061975 0.00675 -0.0376 0.008225 -0.092225 0.0041 -0.173025 -0.014675 -0.282275 0.055825 -0.762275 -0.486725 -1.0149 -0.20475 -0.094875 -0.49205 -0.0658 -0.5878 0.052875 0.017325 0.00235 0.0329 0.005875 0.045225 0.01 0.145125 0.050225 0.047 0.10015 0.020875 0.160075Zm1.521025 2.633775c-0.071075 -0.039375 -0.4036 -0.0238 -0.637425 0.0041 -0.445325 0.0526 -0.9262 0.2068 -1.031375 0.28905 -0.191525 0.14805 -0.104575 0.405975 0.037025 0.512025 0.39685 0.296375 0.74465 0.49525 1.11155 0.446775 0.2253 -0.02965 0.424175 -0.386575 0.564875 -0.710275 0.09635 -0.22295 0.09635 -0.46355 -0.04465 -0.541675Zm-3.942425 -2.2845c0.12545 -0.11925 -0.625375 -0.275825 -1.208175 0.121625 -0.429775 0.29315 -0.443575 0.921775 -0.032025 1.2781 0.041125 0.03525 0.0752 0.060225 0.106625 0.080775 0.12015 -0.0567 0.257025 -0.113675 0.414775 -0.1648 0.26615 -0.08635 0.487625 -0.131 0.66945 -0.1548 0.08695 -0.097225 0.1883 -0.268475 0.16305 -0.578675 -0.034675 -0.42095 -0.3531 -0.354275 -0.1137 -0.582225Z" stroke-width="0.25"></path>
</svg>